<?xml version="1.0" encoding="UTF-8" standalone="no"?>
<svg
   xmlns:dc="http://purl.org/dc/elements/1.1/"
   xmlns:cc="http://creativecommons.org/ns#"
   xmlns:rdf="http://www.w3.org/1999/02/22-rdf-syntax-ns#"
   xmlns:svg="http://www.w3.org/2000/svg"
   xmlns="http://www.w3.org/2000/svg"
   xmlns:sodipodi="http://sodipodi.sourceforge.net/DTD/sodipodi-0.dtd"
   xmlns:inkscape="http://www.inkscape.org/namespaces/inkscape"
   width="202.88805mm"
   height="18.071083mm"
   viewBox="0 0 202.88805 18.071083"
   version="1.1"
   id="svg8"
   inkscape:version="1.0.1 (c497b03c, 2020-09-10)"
   sodipodi:docname="logo.svg">
  <defs
     id="defs2" />
  <sodipodi:namedview
     id="base"
     pagecolor="#ffffff"
     bordercolor="#666666"
     borderopacity="1.0"
     inkscape:pageopacity="0.0"
     inkscape:pageshadow="2"
     inkscape:zoom="0.67553315"
     inkscape:cx="364.4064"
     inkscape:cy="337.49722"
     inkscape:document-units="mm"
     inkscape:current-layer="layer1"
     inkscape:document-rotation="0"
     showgrid="false"
     fit-margin-top="0"
     fit-margin-left="0"
     fit-margin-right="0"
     fit-margin-bottom="0"
     inkscape:window-width="1680"
     inkscape:window-height="1050"
     inkscape:window-x="0"
     inkscape:window-y="0"
     inkscape:window-maximized="0" />
  <metadata
     id="metadata5">
    <rdf:RDF>
      <cc:Work
         rdf:about="">
        <dc:format>image/svg+xml</dc:format>
        <dc:type
           rdf:resource="http://purl.org/dc/dcmitype/StillImage" />
        <dc:title></dc:title>
      </cc:Work>
    </rdf:RDF>
  </metadata>
  <g
     inkscape:label="Layer 1"
     inkscape:groupmode="layer"
     id="layer1"
     transform="translate(-13.312316,-28.761861)">
    <g
       style="fill:none"
       id="g1152"
       transform="matrix(0.65529471,0,0,0.65529471,10.36349,27.967982)">
      <path
         d="M 23.1685,11.6164 C 23.4474,10.287 23.0413,8.89921 22.071,7.92892 21.308,7.16583 20.2933,6.74563 19.2142,6.74563 c -0.2798,0 -0.558,0.02879 -0.8307,0.08587 C 17.6407,5.69408 16.3722,5 15,5 13.6278,5 12.3593,5.69413 11.6163,6.8315 11.3437,6.77446 11.0655,6.74563 10.7857,6.74563 9.70654,6.74563 8.69196,7.16588 7.92888,7.92892 6.95863,8.89921 6.55254,10.287 6.83138,11.6164 5.69412,12.3593 5,13.6279 5,15 c 0,1.3723 0.69412,2.6408 1.83138,3.3837 -0.2788,1.3294 0.12733,2.7172 1.09754,3.6875 0.76308,0.7631 1.77766,1.1833 2.85688,1.1833 0.2798,0 0.558,-0.0288 0.8306,-0.0859 C 12.3593,24.3059 13.6278,25 15,25 c 1.3722,0 2.6407,-0.6941 3.3836,-1.8315 0.2727,0.057 0.5509,0.0858 0.8307,0.0859 10e-5,0 10e-5,0 10e-5,0 1.0791,0 2.0936,-0.4203 2.8567,-1.1834 0.9702,-0.9703 1.3764,-2.358 1.0976,-3.6875 C 24.306,17.6406 25,16.3722 25,15 24.9999,13.6278 24.3058,12.3593 23.1685,11.6164 Z m -0.6784,6.2026 -0.2959,0.1609 0.0954,0.323 c 0.3333,1.1292 0.0238,2.3473 -0.8078,3.1789 -0.6057,0.6057 -1.411,0.9393 -2.2675,0.9392 -0.3093,0 -0.6158,-0.0442 -0.9113,-0.1315 L 17.98,22.1942 17.819,22.49 c -0.5628,1.0342 -1.6429,1.6767 -2.819,1.6767 -1.176,0 -2.2562,-0.6424 -2.819,-1.6766 l -0.161,-0.2959 -0.3229,0.0954 c -0.2956,0.0873 -0.6021,0.1315 -0.9113,0.1315 -0.85659,0 -1.66193,-0.3336 -2.26759,-0.9392 C 7.68662,20.6503 7.37708,19.4322 7.71042,18.303 L 7.80575,17.98 7.50992,17.819 C 6.47579,17.2563 5.83333,16.1762 5.83333,15 c 0,-1.176 0.64246,-2.2562 1.67659,-2.8189 l 0.29587,-0.161 -0.09537,-0.323 C 7.37704,10.568 7.68654,9.34988 8.51817,8.51825 9.12383,7.91258 9.92912,7.57904 10.7857,7.57904 c 0.3092,0 0.6158,0.04425 0.9113,0.13146 L 12.02,7.80583 12.1809,7.51004 C 12.7438,6.47579 13.8239,5.83333 15,5.83333 c 1.176,0 2.2561,0.64242 2.8189,1.67663 l 0.1609,0.29579 0.323,-0.09533 c 0.2956,-0.08725 0.6022,-0.13146 0.9113,-0.13146 0.8567,0 1.662,0.33354 2.2677,0.93921 0.8315,0.83166 1.1411,2.04973 0.8077,3.17883 l -0.0954,0.323 0.2959,0.161 c 1.0341,0.5627 1.6766,1.6429 1.6767,2.819 0,1.176 -0.6425,2.2562 -1.6766,2.819 z"
         fill="#000000"
         stroke="#000000"
         id="path833" />
      <path
         d="M 21.4464,12.3301 C 21.0813,11.4488 20.3111,10.8111 19.3922,10.6085 19.1897,9.68978 18.5519,8.91958 17.6706,8.55448 17.3161,8.40766 16.9433,8.33325 16.5624,8.33325 c -0.5532,0 -1.0971,0.16042 -1.5618,0.4566 -0.4647,-0.29618 -1.0085,-0.4566 -1.5618,-0.4566 -0.3808,0 -0.7537,0.07441 -1.1081,0.22127 -0.8813,0.36498 -1.5191,1.13522 -1.7217,2.05408 -0.91887,0.2025 -1.68911,0.8403 -2.05411,1.7215 -0.36509,0.8813 -0.27141,1.8769 0.23501,2.6698 -0.50646,0.7929 -0.6001,1.7885 -0.23501,2.6698 0.36508,0.8812 1.13528,1.519 2.05411,1.7216 0.2026,0.9188 0.8404,1.689 1.7217,2.0541 0.3545,0.1468 0.7273,0.2212 1.1082,0.2212 0.5532,0 1.0971,-0.1604 1.5617,-0.4566 0.4647,0.2961 1.0086,0.4565 1.5618,0.4566 0,0 0,0 0,0 0.3809,0 0.7537,-0.0745 1.1082,-0.2213 0.8813,-0.365 1.5191,-1.1352 1.7217,-2.0541 0.9188,-0.2025 1.6891,-0.8403 2.0542,-1.7216 0.365,-0.8813 0.2713,-1.8768 -0.2351,-2.6697 0.5064,-0.7929 0.6001,-1.7885 0.235,-2.6698 z m -1.076,2.933 c 0.4757,0.5884 0.5915,1.3878 0.3023,2.086 -0.2892,0.6983 -0.9364,1.1816 -1.6889,1.2614 l -0.3365,0.0357 -0.0358,0.3366 c -0.0798,0.7524 -0.5631,1.3996 -1.2614,1.6888 -0.2523,0.1045 -0.5173,0.1575 -0.7876,0.1575 0,0 -10e-5,0 -10e-5,0 -0.4705,0 -0.9317,-0.1633 -1.2986,-0.4597 l -0.2632,-0.2128 -0.2632,0.2128 c -0.3668,0.2965 -0.8279,0.4597 -1.2985,0.4597 -0.2703,0 -0.5353,-0.053 -0.7877,-0.1575 -0.6983,-0.2892 -1.1816,-0.9363 -1.2614,-1.6888 L 11.3541,18.6463 11.0175,18.6106 C 10.265,18.5308 9.61789,18.0474 9.32865,17.3491 9.0394,16.6509 9.15519,15.8516 9.63088,15.2631 L 9.84365,14.9999 9.63088,14.7367 C 9.15519,14.1482 9.0394,13.3488 9.32865,12.6506 9.61781,11.9523 10.2649,11.469 11.0174,11.3893 l 0.3366,-0.0357 0.0357,-0.3366 c 0.0798,-0.7525 0.5631,-1.39962 1.2614,-1.68885 0.2523,-0.10452 0.5174,-0.15749 0.7877,-0.15749 0.4705,0 0.9316,0.16327 1.2985,0.45974 l 0.2632,0.21277 0.2632,-0.21273 c 0.3669,-0.29651 0.8281,-0.45978 1.2987,-0.45978 0.2703,0 0.5353,0.05297 0.7876,0.15749 0.6983,0.28931 1.1817,0.93635 1.2614,1.68875 l 0.0357,0.3366 0.3366,0.0357 c 0.7525,0.0798 1.3996,0.5631 1.6889,1.2614 0.2893,0.6983 0.1735,1.4976 -0.3022,2.0861 l -0.2127,0.2632 z"
         fill="#000000"
         stroke="#000000"
         id="path835" />
      <path
         d="m 18.3377,13.6174 c 0.0575,-0.5289 -0.1252,-1.0618 -0.5093,-1.4459 -0.3351,-0.335 -0.7805,-0.5195 -1.2543,-0.5195 -0.0641,0 -0.128,0.0035 -0.1915,0.0103 C 16.0492,11.2477 15.5431,11 15,11 14.4568,11 13.9507,11.2477 13.6173,11.6623 13.5538,11.6555 13.49,11.652 13.4258,11.652 c -0.4738,0 -0.9192,0.1845 -1.2543,0.5195 -0.384,0.3841 -0.5667,0.917 -0.5093,1.4459 C 11.2477,13.9507 11,14.4568 11,15 c 0,0.5431 0.2477,1.0492 0.6622,1.3825 -0.0574,0.5289 0.1253,1.0619 0.5094,1.4459 0.335,0.3351 0.7805,0.5196 1.2543,0.5196 0.0641,0 0.128,-0.0035 0.1914,-0.0103 C 13.9507,18.7523 14.4568,19 15,19 c 0.5432,0 1.0493,-0.2477 1.3827,-0.6623 0.0634,0.0068 0.1273,0.0103 0.1914,0.0103 10e-5,0 10e-5,0 10e-5,0 0.4738,0 0.9192,-0.1845 1.2542,-0.5196 0.3841,-0.384 0.5669,-0.917 0.5094,-1.4459 C 18.7523,16.0492 19,15.5431 19,15 19,14.4568 18.7523,13.9507 18.3377,13.6174 Z m -0.6666,2.203 -0.2984,0.1624 0.0962,0.3259 c 0.097,0.3286 0.0069,0.6831 -0.2351,0.9252 -0.1762,0.1762 -0.4105,0.2733 -0.6597,0.2733 -0.0901,-10e-5 -0.1794,-0.0129 -0.2654,-0.0383 l -0.3258,-0.0963 -0.1624,0.2985 c -0.1639,0.301 -0.4783,0.488 -0.8205,0.488 -0.3422,0 -0.6566,-0.187 -0.8204,-0.488 l -0.1624,-0.2985 -0.3259,0.0963 c -0.086,0.0254 -0.1753,0.0383 -0.2654,0.0383 -0.2492,0 -0.4835,-0.0971 -0.6597,-0.2733 -0.242,-0.242 -0.332,-0.5965 -0.2351,-0.9252 l 0.0962,-0.3259 -0.2985,-0.1624 c -0.301,-0.1639 -0.488,-0.4782 -0.488,-0.8204 0,-0.3423 0.187,-0.6566 0.488,-0.8204 l 0.2985,-0.1624 -0.0962,-0.326 c -0.097,-0.3286 -0.0069,-0.6832 0.2351,-0.9252 0.1761,-0.1761 0.4105,-0.2732 0.6597,-0.2732 0.0901,0 0.1794,0.0128 0.2654,0.0382 l 0.3259,0.0962 0.1624,-0.2984 c 0.1638,-0.3011 0.4782,-0.4881 0.8204,-0.4881 0.3422,0 0.6565,0.187 0.8203,0.4881 l 0.1624,0.2984 0.3259,-0.0962 c 0.0861,-0.0254 0.1754,-0.0383 0.2655,-0.0383 0.2492,0 0.4836,0.0971 0.6597,0.2733 0.242,0.242 0.332,0.5965 0.2351,0.9252 l -0.0962,0.3259 0.2985,0.1624 c 0.301,0.1638 0.488,0.4782 0.488,0.8204 0,0.3423 -0.187,0.6567 -0.4881,0.8205 z"
         fill="#000000"
         stroke="#000000"
         id="path837" />
    </g>
    <path
       id="path0"
       d="m 54.473805,37.725513 c -0.129646,0.40826 0.02487,0.71094 0.461433,0.90408 0.505884,0.22411 0.500063,0.35587 -0.06456,1.43854 -0.533135,1.02262 -0.578379,1.42267 -0.184679,1.63354 0.583935,0.31247 3.818731,-0.2323 7.857595,-1.32344 0.72681,-0.19633 2.510366,-0.80487 2.7432,-0.93584 0.12647,-0.0712 0.290777,-0.12938 0.365389,-0.12938 0.07435,0 0.417513,-0.1262 0.762265,-0.28072 0.345016,-0.15425 0.908844,-0.40719 1.253066,-0.56224 0.693209,-0.31168 0.876565,-0.67601 0.266965,-0.53049 -0.200025,0.0479 -0.423333,0.12912 -0.496094,0.18018 -1.107281,0.78079 -7.214923,2.48629 -11.112499,3.10304 -1.589881,0.25161 -1.605491,0.23309 -0.926041,-1.11602 0.627856,-1.24671 0.578379,-1.6039 -0.264584,-1.90711 -0.246062,-0.0884 -0.248179,-0.10425 -0.03307,-0.2249 0.374915,-0.21061 0.282575,-0.51382 -0.156368,-0.51382 -0.271727,0 -0.413279,0.0791 -0.472017,0.26458 m 15.500083,-0.17647 c -0.273314,0.27358 -0.07276,0.8329 0.374915,1.04536 0.254794,0.12065 0.463021,0.28337 0.463021,0.36116 0,0.078 -0.208227,0.54451 -0.463021,1.03664 -0.931333,1.79969 -0.341048,2.16826 2.513542,1.57004 0.291041,-0.0609 0.886354,-0.18071 1.322916,-0.26618 0.933715,-0.18256 2.873375,-0.63605 3.439584,-0.80406 1.204912,-0.35746 2.982383,-0.96626 3.471333,-1.18851 0.30824,-0.14023 0.610923,-0.25506 0.672571,-0.25506 0.239977,0 2.007658,-0.93028 2.007658,-1.05675 0,-0.186 -0.214577,-0.16748 -0.740569,0.0646 -0.24765,0.10927 -0.648493,0.28575 -0.891116,0.39264 -0.4572,0.20135 -3.426354,1.20888 -4.123002,1.39886 -1.134269,0.30982 -2.581275,0.6768 -3.108855,0.78898 -0.327554,0.0696 -0.982397,0.21008 -1.455208,0.31195 -1.557867,0.33628 -2.968096,0.46725 -3.143514,0.29183 -0.02831,-0.0281 0.165629,-0.4699 0.430477,-0.98213 0.67257,-1.29937 0.613833,-1.76186 -0.263525,-2.08068 -0.236009,-0.086 -0.239713,-0.10213 -0.03307,-0.15161 0.360627,-0.0862 0.295275,-0.56515 -0.07726,-0.56515 -0.169598,0 -0.348191,0.0397 -0.396875,0.0881 m -24.87348,0.50085 c -0.875771,0.81174 -0.152664,1.26445 2.014273,1.26074 1.954213,-0.003 4.022461,-0.36327 5.209381,-0.90699 0.862807,-0.39529 0.87048,-0.7403 0.0087,-0.39793 -1.182688,0.46963 -3.212307,0.7747 -5.068888,0.76173 -1.433248,-0.01 -1.591998,-0.0315 -1.190625,-0.16272 0.646377,-0.21166 0.79375,-0.32729 0.79375,-0.62256 0,-0.41751 -1.296458,-0.36777 -1.766623,0.0677 m -10.223732,0.17172 c -0.08202,0.20002 -0.462756,1.1676 -0.846402,2.14974 -0.383381,0.98213 -0.796131,1.905 -0.91731,2.05052 -0.676805,0.81412 -0.872067,1.52135 -0.419365,1.52135 0.161131,0 0.355335,-0.21696 0.56224,-0.62838 0.656431,-1.30519 3.42847,-4.10581 4.274079,-4.318 0.902493,-0.22649 0.856985,0.55377 -0.05556,0.95223 -0.540809,0.23627 -0.661459,0.34925 -0.661459,0.62018 0,0.51965 0.631032,0.41752 1.390915,-0.22463 0.371739,-0.31432 0.989012,-0.56303 3.566054,-1.43721 1.23481,-0.41884 2.269331,-0.8345 2.299228,-0.92366 0.08149,-0.24501 -0.61251,-0.0794 -3.103297,0.74057 -2.544763,0.83767 -2.300817,0.78925 -2.300817,0.4564 0,-1.39435 -2.056341,-0.73025 -3.826933,1.23561 -0.394758,0.43841 -0.67019,0.68209 -0.611981,0.5416 0.334168,-0.8083 0.999331,-2.74294 0.999331,-2.90698 0,-0.31353 -0.188383,-0.22119 -0.348721,0.17066 m 50.359203,-0.13229 c 0.01852,1.02155 2.26986,1.35202 4.824412,0.70855 2.138363,-0.53869 2.672027,-0.49609 3.406511,0.27199 0.736071,0.76994 0.761735,0.73792 -1.025261,1.29223 -0.905139,0.28098 -1.353343,0.45005 -1.817158,0.68606 -0.126471,0.0643 -0.288925,0.11695 -0.361421,0.11695 -0.510646,0 -3.300412,1.57215 -4.083579,2.30108 -1.093523,1.01811 -1.016,2.40823 0.147637,2.65218 1.908969,0.40032 3.010165,0.43736 4.609307,0.15531 3.13981,-0.55351 4.541043,-2.61249 3.884083,-5.70733 -0.09419,-0.44317 -0.08969,-0.44476 2.317485,-0.8546 5.277112,-0.898 7.916862,-1.52162 7.635082,-1.80366 -0.045,-0.045 -0.51647,0.018 -1.04722,0.1397 -1.9214,0.44106 -2.00898,0.45799 -4.471195,0.86836 -2.074862,0.34581 -2.492904,0.41645 -3.108854,0.52546 -1.67005,0.29554 -1.543844,0.31671 -2.027767,-0.34078 -0.979487,-1.33006 -1.841764,-1.42637 -4.719108,-0.52652 -1.373188,0.42915 -3.644635,0.1524 -3.84175,-0.46858 -0.09922,-0.31274 -0.32676,-0.32464 -0.321204,-0.0164 m 114.891078,-9.17417 c -3.69041,1.05199 -7.62714,9.16967 -6.21321,12.81219 0.0892,0.22939 0.59081,0.33284 0.59081,0.1217 0,-0.0606 0.28284,-0.31035 0.62839,-0.55536 0.34555,-0.24527 0.65828,-0.48233 0.69453,-0.52731 0.13653,-0.16854 1.30969,-0.92419 1.43484,-0.92419 0.072,0 0.15054,-0.0447 0.17462,-0.0992 0.17304,-0.3892 2.10767,-0.99483 2.28097,-0.71411 0.12383,0.20029 -1.3708,0.8509 -2.60059,1.13215 -0.68791,0.15716 -0.36168,0.52123 0.712,0.79375 2.67255,0.67866 5.75627,0.54451 10.0367,-0.43683 4.95962,-1.13691 8.33438,-2.11984 8.33438,-2.42702 0,-0.13203 -0.17145,-0.10795 -1.09141,0.15452 -1.82748,0.52123 -3.32555,0.92736 -4.20026,1.13876 -2.42808,0.58659 -3.06282,0.73264 -4.0349,0.9271 -3.08768,0.61807 -5.76791,0.75645 -7.7806,0.40191 -1.05701,-0.18627 -1.44462,-0.33946 -0.87339,-0.34502 0.63712,-0.006 2.03518,-0.82074 2.08042,-1.21232 0.10372,-0.89694 -1.1176,-0.97393 -2.6207,-0.1651 -0.47307,0.25453 -0.96414,0.49768 -1.0914,0.54028 -0.12727,0.0426 -0.23151,0.12277 -0.23151,0.17833 0,0.0553 -0.1786,0.17462 -0.39688,0.26511 -0.21828,0.0905 -0.39687,0.20267 -0.39687,0.2495 0,0.0466 -0.23813,0.23204 -0.52917,0.41196 -0.29104,0.17992 -0.52917,0.37253 -0.52917,0.42809 0,0.0556 -0.0595,0.10108 -0.13229,0.10108 -0.0783,0 -0.13229,-0.47943 -0.13229,-1.1737 0,-4.19364 2.93476,-9.51838 5.82083,-10.56137 3.12447,-1.12871 1.12025,3.14166 -2.97656,6.34286 -0.3638,0.28416 -0.85487,0.66781 -1.0914,0.85248 -0.43286,0.33788 -0.5506,0.57098 -0.2884,0.57098 0.48736,0 3.23797,-2.31643 4.59661,-3.87139 1.60125,-1.83224 2.12619,-3.75655 1.18189,-4.33202 -0.47572,-0.29025 -0.58843,-0.2966 -1.35599,-0.0778 M 94.362916,40.710813 c 1.064684,2.79955 -1.392766,5.19774 -5.340614,5.21202 -5.438775,0.0198 -3.447521,-2.59159 4.014523,-5.26441 0.990071,-0.35481 1.174221,-0.3474 1.326091,0.0524 m 74.084924,-3.78778 c -0.16457,0.30718 -0.18204,0.93477 -0.0259,0.93477 0.14658,0 0.41804,-0.60536 0.41804,-0.93239 0,-0.33126 -0.21537,-0.33258 -0.39211,-0.002 m -41.46421,0.21802 c -0.12277,0.32041 -0.0953,0.84905 0.0442,0.84905 0.16378,0 0.22278,-0.11113 0.33364,-0.62839 0.099,-0.46196 -0.21485,-0.64532 -0.37783,-0.22066 m 17.0516,0.76703 c -1.4732,0.68791 -2.36352,0.71596 -3.5388,0.11112 -0.24289,-0.12515 -0.0688,0.37412 0.19473,0.5588 0.32703,0.22913 2.23097,0.29289 2.7731,0.0929 0.79428,-0.29289 1.03399,-0.29951 1.03399,-0.0291 0,1.18983 1.75313,1.33376 4.69636,0.38549 0.43656,-0.14076 0.8972,-0.31273 1.02341,-0.38205 0.12647,-0.0693 0.31326,-0.12595 0.41539,-0.12595 0.10213,0 0.32597,-0.11721 0.49795,-0.26008 l 0.31221,-0.26035 -0.29131,-0.004 c -0.16034,-0.003 -0.42836,0.0484 -0.59531,0.11324 -0.16722,0.0648 -0.75036,0.24791 -1.2962,0.40666 -0.54557,0.15875 -1.17078,0.34132 -1.38906,0.40588 -1.76212,0.52122 -2.88766,0.26934 -2.8231,-0.6313 0.055,-0.76359 -0.0831,-0.81545 -1.01336,-0.381 m 8.8482,0.008 c -0.13309,0.3466 0.0135,0.66463 0.3892,0.84481 0.55642,0.2667 0.55986,0.46355 0.0262,1.52903 -0.74638,1.4904 -0.6858,1.60338 0.85673,1.59941 1.25147,-0.003 1.76979,-0.0786 4.03489,-0.58553 2.20927,-0.49424 5.79702,-1.59781 6.0788,-1.86981 0.0691,-0.0667 0.19765,-0.12118 0.28575,-0.12118 0.34793,0 2.16826,-0.95011 2.16826,-1.13162 0,-0.24474 0.0257,-0.24897 -0.81968,0.13811 -2.78923,1.27688 -7.74435,2.65695 -11.19399,3.11759 -1.57665,0.21061 -1.58723,0.1987 -0.94086,-1.06971 0.54399,-1.06786 0.61622,-1.65682 0.21749,-1.77483 -0.70617,-0.20928 -0.70855,-0.2114 -0.44582,-0.40454 0.13467,-0.0992 0.20558,-0.24368 0.15769,-0.32147 -0.12885,-0.20796 -0.72972,-0.17145 -0.81465,0.0497 m -15.46278,0.28654 c -0.43656,0.0979 -1.18084,0.2466 -1.65365,0.33047 -0.47281,0.0836 -1.09802,0.19844 -1.38906,0.25532 -0.29104,0.0566 -0.87154,0.16801 -1.28984,0.24765 -0.41831,0.0794 -1.10305,0.21008 -1.52136,0.28998 -0.4183,0.0802 -1.0287,0.19315 -1.35599,0.25136 -0.32729,0.0582 -0.9525,0.17383 -1.38906,0.25717 -0.43656,0.0833 -1.06997,0.19844 -1.40758,0.25586 l -0.61384,0.10424 0.13309,-0.38153 c 0.073,-0.20981 0.0916,-0.42307 0.0408,-0.47387 -0.13758,-0.13732 -0.46752,0.37545 -0.46752,0.72655 0,0.254 -0.0696,0.30533 -0.4146,0.30533 -0.22807,0 -0.62998,0.0566 -0.89297,0.12594 -0.263,0.0691 -1.16284,0.25109 -1.99972,0.40455 -0.83688,0.15346 -1.75948,0.3302 -2.05052,0.39264 -0.54769,0.11774 -1.73752,0.34793 -2.31511,0.4482 -3.38481,0.58764 -6.19151,2.75061 -5.42554,4.18174 0.68765,1.28508 5.82824,1.18587 8.73283,-0.16827 1.56925,-0.73184 3.32317,-2.46618 4.03913,-3.99468 0.38418,-0.81994 0.59188,-1.12104 0.77444,-1.12289 0.13732,-10e-4 1.44701,-0.24024 2.91042,-0.53049 1.46367,-0.29025 2.9882,-0.59293 3.38851,-0.67231 0.40032,-0.0794 0.96573,-0.19791 1.25677,-0.26352 0.29104,-0.0656 1.00542,-0.2167 1.5875,-0.33602 0.9906,-0.20267 1.33112,-0.2757 2.41433,-0.51832 0.23653,-0.0529 0.42994,-0.14843 0.42994,-0.21193 0,-0.15531 -0.55721,-0.11986 -1.52135,0.0968 m 30.9155,0.34634 c 0.0617,0.84826 0.30877,0.92948 2.55429,0.839 1.64359,-0.0662 2.32146,-0.15293 4.69636,-0.60008 1.95315,-0.36803 2.24895,-0.44212 2.24895,-0.56303 0,-0.14155 -1.49674,-0.0548 -2.71198,0.15716 -0.3638,0.0635 -1.22687,0.18442 -1.91822,0.26882 -0.69136,0.0841 -1.54253,0.20822 -1.89178,0.27543 -1.62321,0.31194 -2.73843,0.0624 -2.73843,-0.61304 0,-0.1778 -0.063,-0.32332 -0.13997,-0.32332 -0.0825,0 -0.12329,0.2286 -0.0992,0.55906 m 10.63043,-0.38602 c -1.99734,1.21946 0.3437,2.0656 4.29313,1.55178 0.54584,-0.0712 1.6174,-0.19527 2.38125,-0.27623 0.76385,-0.0807 1.65682,-0.19658 1.98438,-0.25717 0.32755,-0.0608 1.04193,-0.18018 1.5875,-0.26538 0.54583,-0.0852 1.25994,-0.20664 1.5875,-0.26961 0.32755,-0.0632 0.84825,-0.15267 1.15755,-0.19897 0.3093,-0.046 0.56224,-0.14499 0.56224,-0.21987 0,-0.1389 -0.83291,-0.0897 -2.71198,0.16008 -0.50932,0.0675 -1.41711,0.18441 -2.01745,0.25955 -0.60034,0.0751 -1.58247,0.19791 -2.18281,0.27305 -0.60034,0.0751 -1.50813,0.195 -2.01745,0.26617 -3.54436,0.49583 -6.28729,-0.0534 -3.98833,-0.79904 0.33735,-0.10954 0.61384,-0.24368 0.6141,-0.29818 0.001,-0.15717 -0.96441,-0.10002 -1.24963,0.0738 m -53.12175,3.49805 c -1.5621,2.81199 -5.36972,4.79557 -9.20591,4.79557 -4.18597,0 -3.32899,-2.52359 1.33482,-3.93118 0.87736,-0.26484 1.25333,-0.3511 2.97657,-0.68315 0.40031,-0.0773 1.05489,-0.20347 1.4552,-0.28046 0.40032,-0.077 1.02526,-0.19632 1.38907,-0.26458 0.3638,-0.0685 0.89958,-0.17965 1.19062,-0.24712 0.29104,-0.0672 0.6985,-0.12859 0.90567,-0.136 l 0.37624,-0.0138 -0.42228,0.76068"
       stroke="none"
       fill="#666666"
       fill-rule="evenodd"
       sodipodi:nodetypes="ccccccsccccccccscccscccccsscccccccccscccccccsccccscccsccccsccsccccccscccccccscccccccsccscccccscccccccsssssssscccsccccccccssccsccccccsccsccccccccccccccssccccccccccccssccccsscscccccccssccsccccscccssccccccccscsscccccsccsccccc"
       style="stroke-width:0.264583" />
  </g>
</svg>
