<?xml version="1.0" standalone="no"?>
<!DOCTYPE svg PUBLIC "-//W3C//DTD SVG 20010904//EN"
 "http://www.w3.org/TR/2001/REC-SVG-20010904/DTD/svg10.dtd">
<svg version="1.0" xmlns="http://www.w3.org/2000/svg"
 width="700.000000pt" height="700.000000pt" viewBox="0 0 700.000000 700.000000"
 preserveAspectRatio="xMidYMid meet">
<metadata>
Created by potrace 1.14, written by Peter Selinger 2001-2017
</metadata>
<g transform="translate(0.000000,700.000000) scale(0.100000,-0.100000)"
fill="#000000" stroke="none">
<path d="M3350 5939 c-19 -4 -51 -10 -70 -13 -192 -31 -445 -181 -585 -348
-34 -40 -44 -46 -70 -42 -39 5 -204 6 -232 0 -36 -8 -118 -19 -118 -17 0 7
-190 -66 -240 -92 -207 -109 -383 -292 -479 -500 -38 -82 -71 -189 -82 -262
-3 -27 -8 -59 -11 -70 -5 -27 -5 -204 1 -232 3 -15 -1 -26 -12 -32 -30 -16
-150 -144 -200 -212 -85 -117 -162 -288 -178 -399 -3 -19 -9 -48 -13 -65 -13
-51 -10 -256 6 -340 46 -249 163 -450 362 -627 23 -21 40 -42 36 -48 -11 -17
-7 -212 5 -285 80 -475 457 -838 925 -890 70 -8 242 -8 255 0 5 3 15 -4 23
-15 21 -30 87 -99 138 -144 128 -113 328 -208 509 -241 60 -11 262 -14 320 -5
30 5 69 12 85 14 105 17 284 98 400 181 60 42 189 167 207 200 7 12 17 15 41
9 34 -7 197 -7 234 0 11 3 43 8 70 12 135 19 315 100 448 200 228 171 379 439
411 724 7 73 8 203 0 228 -5 15 4 31 40 64 152 141 239 265 301 430 49 131 64
206 68 348 10 330 -111 602 -374 843 -31 29 -40 44 -36 58 4 11 7 61 7 112 0
325 -157 644 -415 840 -117 90 -261 159 -385 188 -26 6 -56 13 -67 15 -43 10
-233 19 -280 13 -49 -6 -51 -5 -84 33 -167 194 -387 319 -636 362 -87 15 -264
18 -325 5z m350 -450 c94 -33 174 -83 244 -153 68 -67 167 -216 128 -192 -9 5
-49 13 -107 22 -42 6 -174 5 -207 -1 -16 -3 -38 -7 -51 -9 -36 -6 -119 -33
-166 -53 -44 -19 -45 -19 -84 0 -100 48 -174 62 -327 62 -117 -1 -179 -7 -203
-22 -17 -11 1 26 49 98 58 88 139 159 239 209 115 57 169 69 305 65 88 -2 130
-8 180 -26z m-1027 -395 c37 -9 67 -19 67 -23 0 -3 -19 -17 -42 -31 -58 -35
-178 -154 -222 -221 -20 -31 -52 -91 -71 -135 -19 -43 -35 -76 -35 -72 0 11
-102 -35 -174 -79 -73 -44 -188 -157 -236 -231 l-35 -54 -18 69 c-28 107 -25
249 7 348 105 328 423 508 759 429z m1916 11 c163 -24 329 -134 422 -279 95
-145 123 -313 84 -492 l-17 -82 -60 79 c-93 123 -223 225 -341 267 -47 17 -50
19 -97 117 -27 56 -73 130 -104 168 -55 66 -149 148 -193 169 -13 6 -23 15
-23 19 0 7 109 35 160 41 35 5 114 1 169 -7z m-1377 -370 c59 -13 121 -48 201
-112 84 -67 97 -72 117 -48 36 43 173 135 224 149 175 51 345 -18 430 -174 30
-54 42 -106 51 -215 4 -44 9 -82 11 -84 6 -6 23 -9 104 -16 146 -14 219 -45
293 -124 76 -81 110 -185 95 -291 -11 -81 -36 -134 -112 -229 -36 -46 -66 -88
-66 -92 0 -4 28 -42 63 -86 75 -92 104 -149 115 -223 17 -117 -24 -235 -108
-314 -73 -68 -134 -93 -267 -108 -127 -14 -119 -6 -128 -113 -13 -144 -37
-206 -112 -286 -101 -108 -265 -140 -406 -80 -24 10 -82 49 -128 86 -96 78
-75 80 -209 -22 -54 -42 -99 -68 -137 -79 -215 -62 -425 71 -468 296 -2 8 -6
49 -10 90 -4 41 -12 80 -18 87 -7 6 -41 14 -77 18 -168 16 -242 46 -317 130
-54 59 -81 117 -92 195 -9 69 8 166 40 218 28 48 132 181 142 182 4 0 7 -12 7
-26 0 -78 59 -226 116 -293 25 -29 35 -51 39 -92 14 -120 77 -250 160 -331 72
-70 213 -134 314 -142 40 -4 60 -12 90 -38 122 -104 318 -144 476 -97 58 17
149 64 188 98 25 22 48 32 87 36 151 17 293 101 389 230 36 48 77 169 85 248
4 35 14 58 36 83 67 77 110 190 116 308 6 134 -38 270 -117 360 -25 29 -32 47
-35 92 -12 142 -111 305 -235 385 -81 51 -160 77 -274 88 -6 1 -33 18 -62 39
-50 39 -131 81 -165 87 -10 2 -22 6 -27 9 -5 4 -47 9 -93 12 -134 9 -275 -34
-366 -112 -29 -24 -51 -34 -93 -39 -29 -4 -83 -17 -119 -29 -69 -24 -180 -89
-180 -106 0 -5 -7 -10 -15 -10 -8 0 -15 -3 -15 -7 0 -5 -11 -21 -25 -38 -13
-16 -28 -35 -33 -40 -34 -41 -76 -162 -87 -250 -4 -32 -15 -59 -29 -75 -60
-64 -103 -161 -120 -267 l-11 -73 -64 81 c-94 119 -123 188 -123 289 1 100 44
194 122 264 64 57 129 83 250 97 58 6 110 17 116 23 6 6 17 58 23 116 14 124
40 188 106 259 86 92 214 132 337 106z m337 -629 c17 -9 43 -43 71 -96 24 -45
49 -84 55 -87 7 -2 51 8 99 22 97 28 127 27 162 -6 36 -34 38 -67 9 -168 -21
-73 -24 -95 -15 -106 7 -8 16 -15 20 -15 22 0 139 -76 153 -100 39 -66 11
-117 -93 -170 -100 -51 -96 -42 -65 -152 28 -105 26 -134 -10 -168 -33 -31
-75 -31 -168 -3 -43 13 -85 22 -92 19 -7 -2 -27 -32 -44 -65 -43 -86 -51 -97
-82 -115 -65 -38 -108 -15 -167 92 -26 47 -52 86 -58 89 -10 4 -41 -4 -144
-35 -41 -13 -90 -5 -114 17 -38 36 -40 64 -10 169 l27 95 -22 16 c-12 9 -51
32 -87 51 -89 46 -113 94 -80 158 13 24 152 112 178 112 13 0 9 28 -17 115
-14 46 -23 96 -21 111 7 35 44 73 79 80 23 4 180 -34 205 -50 5 -3 28 32 52
77 24 45 55 92 68 104 29 26 70 30 111 9z m-1700 -58 c-14 -25 -20 -277 -8
-333 11 -50 30 -117 39 -134 36 -72 36 -70 11 -134 -44 -119 -58 -191 -59
-304 -1 -61 5 -136 12 -167 l13 -56 -60 33 c-33 17 -93 64 -133 104 -140 138
-209 345 -179 538 23 154 119 316 239 404 52 39 128 82 134 76 2 -2 -2 -14 -9
-27z m3363 -5 c35 -21 91 -66 125 -101 246 -246 245 -639 -2 -886 -38 -39 -83
-78 -100 -86 -16 -8 -42 -22 -57 -32 -14 -10 -28 -18 -30 -18 -3 0 1 28 8 63
29 137 13 301 -43 451 l-26 68 23 54 c56 137 76 334 46 462 -8 34 -13 62 -11
62 2 0 32 -17 67 -37z m-3217 -1391 c88 -115 163 -170 373 -271 7 -3 23 -31
36 -62 54 -133 146 -250 268 -339 l77 -57 -77 -18 c-406 -96 -786 202 -784
616 0 97 31 240 47 214 5 -10 33 -47 60 -83z m3086 78 c2 -12 2 -12 17 -75 73
-300 -100 -617 -396 -729 -128 -48 -230 -53 -394 -16 l-57 13 77 57 c123 92
201 189 266 332 31 67 37 75 72 86 114 34 309 190 374 300 25 41 39 52 41 32z
m-1523 -840 c104 -44 198 -60 331 -57 69 2 139 9 155 16 34 14 37 12 25 -14
-33 -75 -126 -187 -191 -231 -24 -16 -45 -31 -48 -34 -7 -8 -120 -56 -160 -68
-69 -21 -204 -30 -260 -18 -14 3 -41 9 -60 12 -95 17 -251 112 -323 195 -41
48 -108 155 -101 162 2 2 26 -2 52 -9 29 -8 95 -12 177 -10 120 2 137 5 230
38 55 20 106 36 113 37 7 0 34 -8 60 -19z"/>
</g>
</svg>
